<svg width="477" height="70" viewBox="0 0 477 70" fill="none" xmlns="http://www.w3.org/2000/svg">
<path d="M32.3365 29.5934C33.1529 32.2466 33.1529 31.8139 34.7857 38.9409C35.9123 43.6922 35.9286 48.6312 34.304 52.2069C31.1365 59.1543 25.6913 64.7709 15.9927 64.9097C9.98423 64.9995 7.2657 63.7423 3.2818 60.8278C7.1759 67.6364 14.8498 70.8121 23.1931 69.808C34.2632 68.5099 41.8065 59.5706 40.8676 48.5822C40.513 44.694 39.4651 40.9006 37.7736 37.3816C36.7123 35.0876 32.312 27.0626 31.0303 25.136C31.2752 26.2463 31.8467 28.1402 32.3039 29.5771L32.3365 29.5934Z" fill="#0086A9"/>
<path d="M0.489825 47.962C0.182211 47.0484 0.0170027 46.0929 0 45.1291C0 44.9332 0 44.7536 0 44.5577C0.0898011 42.5984 0.759227 41.235 1.78786 38.8431C2.7022 36.7613 5.86973 32.9243 7.92699 30.8916C10.1102 28.7105 12.4132 26.6528 14.8253 24.728C17.4459 22.5482 20.4338 20.4338 20.6134 15.9275C20.6231 15.388 20.5057 14.8538 20.2706 14.3682C20.227 15.1065 20.101 15.8376 19.895 16.5479C19.6395 17.2072 19.2598 17.8114 18.7766 18.3276C17.2281 19.8484 15.5357 21.2154 13.7232 22.4095C12.2783 23.5361 9.88629 24.7851 6.20444 27.7894C6.20444 27.7894 5.15132 28.5323 3.88594 29.6017C6.27791 25.0708 9.70668 20.442 13.1844 15.6499C16.5071 11.07 18.7848 5.50236 20.7849 0C22.1972 4.35944 25.6096 8.16373 27.2261 11.2741C28.2279 12.964 28.7893 14.8785 28.8588 16.8418C28.9078 21.2584 25.079 24.7443 19.8052 28.4343C14.5314 32.1243 8.22088 35.9531 4.08187 41.431C2.57798 43.418 1.3809 45.6195 0.530643 47.962H0.489825Z" fill="#6CB345"/>
<path d="M4.42471 56.7869C5.15422 57.6651 6.00017 58.4396 6.93914 59.0891C7.89464 59.765 8.92122 60.3344 10.0005 60.7871C11.752 61.4462 13.5936 61.8343 15.4621 61.9382C18.4983 62.1967 21.5551 61.8271 24.4422 60.8524C26.3235 60.1648 28.08 59.1749 29.6425 57.9216C32.6957 55.4317 33.4631 53.75 33.7244 53.2928C33.7244 53.2928 34.0836 52.6969 34.304 52.207C35.9367 48.6231 35.9367 43.6923 34.7938 38.9246C33.1039 31.814 33.0958 32.2385 32.3447 29.5853C31.9202 28.1648 31.3242 26.3198 31.0711 25.2014L31.0222 25.1034C30.0262 24.0095 29.3159 24.785 27.2424 26.5811C25.3196 28.3697 23.2796 30.0279 21.1359 31.5446C15.8131 35.2918 9.65767 38.9981 5.88602 44.0106C4.60999 45.6896 3.6147 47.5644 2.93891 49.562C2.60641 50.7977 2.56608 52.0938 2.82113 53.3478C3.07618 54.6018 3.6196 55.7792 4.40839 56.7869H4.42471Z" fill="#55A4C0"/>
<path d="M50.0029 42.4841H476.974L473.709 53.9134L476.974 65.3426H50.0029L53.2684 53.9134L50.0029 42.4841Z" fill="#D5E3EB"/>
<path d="M64.3874 35.0877C58.5666 35.0877 52.6398 31.8222 52.6398 22.3767C52.6398 14.6702 58.1095 10.074 64.2813 10.074H71.5796C71.9388 10.074 72.298 10.172 72.2491 10.6291L71.9388 12.9313C71.9323 13.0313 71.9025 13.1284 71.8518 13.2149C71.8012 13.3013 71.7311 13.3748 71.6471 13.4295C71.5631 13.4842 71.4676 13.5185 71.368 13.5298C71.2684 13.5411 71.1676 13.529 71.0735 13.4946C68.8792 12.7114 66.5618 12.3298 64.2323 12.368C59.7912 12.368 57.2931 15.7886 57.2931 22.3767C57.2931 30.2384 61.0647 32.6875 65.7589 32.6875C67.7791 32.5154 69.6933 31.7097 71.2286 30.3854C71.317 30.2991 71.4357 30.2508 71.5592 30.2508C71.6828 30.2508 71.8014 30.2991 71.8899 30.3854L72.7062 31.4058C72.7487 31.4395 72.783 31.4823 72.8066 31.531C72.8302 31.5798 72.8425 31.6333 72.8425 31.6875C72.8425 31.7417 72.8302 31.7951 72.8066 31.8439C72.783 31.8927 72.7487 31.9355 72.7062 31.9691C70.4265 34.0217 67.4546 35.1358 64.3874 35.0877Z" fill="#0086A9"/>
<path d="M94.9606 34.5734H80.3067C79.8495 34.5734 79.5964 34.3693 79.5964 33.9611L79.6454 22.3196L79.5964 10.6863C79.5964 10.2781 79.8495 10.074 80.3067 10.074H82.9109C83.4252 10.074 83.6783 10.2781 83.6783 10.6863L83.6293 22.3196L83.6783 31.4058C83.7009 31.6331 83.8085 31.8435 83.9795 31.9949C84.1506 32.1462 84.3725 32.2274 84.6008 32.2222H88.1684C90.4455 32.0998 92.7135 31.8436 94.9606 31.4548C95.3198 31.3977 95.8259 31.4548 95.8259 31.9609V34.0101C95.8259 34.4182 95.4749 34.5652 94.9606 34.5652V34.5734Z" fill="#0086A9"/>
<path d="M118.537 34.5734H102.659C102.202 34.5734 101.941 34.3693 101.941 33.9611L101.998 22.3196L101.941 10.6863C101.941 10.2781 102.202 10.074 102.659 10.074H118.023C118.537 10.074 118.888 10.2209 118.888 10.6291V12.5231C118.888 12.9313 118.48 13.0864 118.023 13.0293C118.023 13.0293 113.223 12.417 110.929 12.417H106.896C106.673 12.4008 106.452 12.4717 106.28 12.6148C106.108 12.7579 105.998 12.962 105.973 13.1844L105.924 20.5317C105.927 20.5714 105.944 20.6088 105.973 20.6362C106.002 20.6635 106.04 20.6787 106.08 20.6787L114.603 20.4746C114.856 20.4746 115.215 20.5317 115.215 20.8828V22.7767C115.215 23.1849 114.856 23.2339 114.603 23.2339L106.08 23.0298C106.059 23.0272 106.037 23.0294 106.017 23.0362C105.997 23.0431 105.979 23.0544 105.964 23.0694C105.949 23.0844 105.938 23.1025 105.931 23.1226C105.924 23.1426 105.922 23.1639 105.924 23.1849L105.973 31.3977C105.996 31.625 106.104 31.8353 106.275 31.9867C106.446 32.1381 106.668 32.2193 106.896 32.214H110.929C113.223 32.214 118.537 31.4467 118.537 31.4467C118.888 31.3895 119.354 31.4466 119.354 31.9528V34.0019C119.354 34.4101 118.995 34.557 118.537 34.557V34.5734Z" fill="#0086A9"/>
<path d="M145.943 34.5736H142.474C142.281 34.588 142.089 34.5424 141.924 34.4429C141.759 34.3435 141.628 34.1951 141.551 34.0184C141.551 34.0184 140.841 32.2306 140.433 31.2591L139.053 27.8385C139.014 27.7637 138.955 27.7008 138.883 27.6564C138.812 27.6119 138.729 27.5873 138.645 27.5854H128.897C128.818 27.5845 128.741 27.6085 128.677 27.6539C128.612 27.6993 128.564 27.7639 128.538 27.8385L126.293 34.0184C126.244 34.1922 126.135 34.3432 125.986 34.4447C125.837 34.5462 125.656 34.5919 125.477 34.5736H123.223C122.668 34.5736 122.562 34.1654 122.717 33.7572L132.775 10.3272C133.028 9.66598 135.273 9.66598 135.583 10.3272L144.972 31.1529C145.404 32.0896 145.9 32.9952 146.457 33.8633C146.71 34.3205 146.408 34.5736 145.943 34.5736ZM133.698 14.7683C133.649 14.6704 133.551 14.6704 133.551 14.7683L129.469 25.4383C129.455 25.4578 129.448 25.4806 129.446 25.5041C129.445 25.5277 129.45 25.5512 129.461 25.5721C129.472 25.593 129.488 25.6106 129.508 25.623C129.528 25.6354 129.551 25.6421 129.575 25.6424H138.049C138.204 25.6424 138.204 25.5853 138.147 25.4873L133.706 14.7683H133.698Z" fill="#0086A9"/>
<path d="M171.716 27.9934L171.773 34.4754C171.773 35.3408 170.696 35.1856 170.442 34.9326L154.621 16.2458C154.466 16.0988 154.36 16.1968 154.36 16.2458L154.923 33.8141C154.923 34.1652 154.825 34.5734 154.262 34.5734H151.96C151.454 34.5734 151.347 34.1652 151.347 33.8141L151.862 16.6703L151.756 10.7026C151.756 10.2944 152.066 10.0903 152.523 10.0903H153.65C153.823 10.0869 153.994 10.1216 154.152 10.1922C154.311 10.2628 154.451 10.3674 154.564 10.4985L168.557 27.0382C168.81 27.3403 169.12 27.1362 169.12 26.9321L168.655 10.8495C168.655 10.4985 168.704 10.0903 169.267 10.0903H171.438C171.945 10.0903 172.051 10.4985 172.051 10.8495L171.74 27.9934H171.716Z" fill="#0086A9"/>
<path d="M215.204 34.5735C215.106 34.8348 214.184 34.9817 213.776 34.9817C213.367 34.9817 212.608 34.8838 212.453 34.5735L205.971 18.2869C205.971 18.2379 205.816 18.1889 205.767 18.2869L199.195 34.5735C199.089 34.8348 198.273 34.9817 197.864 34.9817C197.456 34.9817 196.591 34.8838 196.493 34.5735L188.582 10.7354C188.435 10.2783 188.737 10.0742 189.195 10.0742H192.264C192.458 10.0565 192.651 10.1085 192.81 10.2208C192.968 10.333 193.082 10.4981 193.129 10.6864L198.085 29.161C198.134 29.2671 198.387 29.161 198.387 29.063L205.277 11.2987C205.383 11.0375 205.84 10.8905 206.249 10.8905C206.657 10.8905 207.171 10.9885 207.269 11.2987L214.012 29.161C214.012 29.161 214.265 29.2181 214.314 29.063L219.319 10.7354C219.417 10.3762 219.572 10.0742 220.086 10.0742H222.176C222.739 10.0742 222.788 10.6293 222.69 10.9885L215.18 34.5735H215.204Z" fill="#0086A9"/>
<path d="M246.741 34.5736H243.279C243.087 34.588 242.895 34.5424 242.73 34.4429C242.564 34.3435 242.434 34.1951 242.357 34.0184C242.357 34.0184 241.647 32.2306 241.238 31.2591L239.859 27.8385C239.819 27.7637 239.761 27.7008 239.689 27.6564C239.617 27.6119 239.535 27.5873 239.451 27.5854H229.695C229.616 27.5845 229.539 27.6085 229.474 27.6539C229.41 27.6993 229.361 27.7639 229.336 27.8385L227.091 34.0184C227.042 34.1922 226.933 34.3432 226.784 34.4447C226.634 34.5462 226.454 34.5919 226.274 34.5736H224.029C223.466 34.5736 223.36 34.1654 223.515 33.7572L233.573 10.3272C233.826 9.66598 236.071 9.66598 236.381 10.3272L245.769 31.1529C246.201 32.0896 246.698 32.9952 247.255 33.8633C247.508 34.3205 247.198 34.5736 246.741 34.5736ZM234.495 14.7683C234.446 14.6704 234.348 14.6704 234.348 14.7683L230.266 25.4383C230.253 25.4578 230.245 25.4806 230.244 25.5041C230.243 25.5277 230.248 25.5512 230.258 25.5721C230.269 25.593 230.286 25.6106 230.306 25.623C230.326 25.6354 230.349 25.6421 230.372 25.6424H238.846C239.002 25.6424 239.002 25.5853 238.953 25.4873L234.503 14.7683H234.495Z" fill="#0086A9"/>
<path d="M266.489 12.417C266.489 12.8823 266.138 12.9313 265.77 12.9313C265.77 12.9313 260.978 12.417 258.733 12.417C258.472 12.417 258.268 12.6782 258.219 13.0293V33.9611C258.268 34.3693 257.966 34.5734 257.509 34.5734H254.904C254.447 34.5734 254.186 34.3693 254.186 33.9611V12.9803C254.187 12.8403 254.135 12.705 254.042 12.6009C253.948 12.4968 253.819 12.4312 253.68 12.417C251.435 12.417 246.635 12.9313 246.635 12.9313C246.275 12.9313 245.916 12.8823 245.916 12.417L245.728 10.6455C245.679 10.2373 246.137 10.0903 246.602 10.0903H265.738C266.203 10.0903 266.66 10.2373 266.611 10.6455L266.456 12.4333L266.489 12.417Z" fill="#0086A9"/>
<path d="M288.841 34.5734H272.963C272.506 34.5734 272.252 34.3693 272.252 33.9611L272.301 22.3196L272.252 10.6863C272.252 10.2781 272.506 10.074 272.963 10.074H288.327C288.841 10.074 289.2 10.2209 289.2 10.6291V12.5231C289.2 12.9313 288.792 13.0864 288.327 13.0293C288.327 13.0293 283.527 12.417 281.233 12.417H277.2C276.977 12.401 276.758 12.4721 276.587 12.6154C276.416 12.7586 276.308 12.9627 276.285 13.1844L276.228 20.5317C276.232 20.5708 276.25 20.6071 276.278 20.6341C276.307 20.6611 276.344 20.6769 276.383 20.6787L284.914 20.4746C285.167 20.4746 285.527 20.5317 285.527 20.8828V22.7767C285.527 23.1849 285.167 23.2339 284.914 23.2339L276.383 23.0298C276.362 23.0272 276.341 23.0294 276.321 23.0362C276.301 23.0431 276.283 23.0544 276.268 23.0694C276.253 23.0844 276.241 23.1025 276.235 23.1226C276.228 23.1426 276.226 23.1639 276.228 23.1849L276.285 31.3977C276.308 31.6235 276.414 31.8327 276.584 31.9839C276.753 32.1351 276.973 32.2172 277.2 32.214H281.233C283.527 32.214 288.841 31.4467 288.841 31.4467C289.2 31.3895 289.658 31.4466 289.658 31.9528V34.0019C289.658 34.4101 289.298 34.557 288.841 34.557V34.5734Z" fill="#0086A9"/>
<path d="M316.908 34.5734H313.488C313.349 34.58 313.211 34.5512 313.087 34.4898C312.963 34.4284 312.856 34.3363 312.777 34.2223L312.671 34.0182L306.344 24.7687C305.626 23.7482 304.965 23.2421 304.197 23.2421H301.185C300.777 23.2421 300.475 23.4952 300.475 23.7482L300.523 33.9611C300.523 34.3693 300.27 34.5734 299.756 34.5734H297.16C296.703 34.5734 296.45 34.3693 296.45 33.9611L296.499 22.3196L296.45 10.6863C296.45 10.376 296.499 10.074 297.005 10.074H307.83C311.814 10.074 315.128 12.5231 315.128 15.9437C315.128 19.3643 312.426 21.9685 308.646 22.7278C308.597 22.7849 308.548 22.7849 308.597 22.7849C309.239 23.3687 309.819 24.017 310.328 24.7197L316.206 32.3283L317.48 33.8631C317.782 34.2223 317.48 34.5734 316.916 34.5734H316.908ZM306.238 12.0088H301.544C300.981 12.0088 300.523 12.368 300.523 12.7762L300.475 20.793C300.513 20.9528 300.604 21.0951 300.732 21.1972C300.861 21.2993 301.02 21.3553 301.185 21.3563H304.401C308.385 21.3563 310.785 19.9766 310.785 16.2458C310.785 13.7966 308.997 12.0088 306.238 12.0088Z" fill="#0086A9"/>
<path d="M349.93 34.5735L347.906 29.3079H338.926L336.95 34.5735H331.856L341.783 10.4333H345.048L354.976 34.5735H349.93ZM340.469 25.3403H346.355L343.432 17.5685L340.469 25.3403Z" fill="#6CB345"/>
<path d="M370.201 10.4332C372.7 10.3208 375.197 10.7037 377.548 11.5598V15.9846C375.147 15.2127 372.633 14.8458 370.111 14.8988C365.27 14.8988 363.76 18.9072 363.76 22.8095C363.76 26.7117 365.27 30.7119 370.111 30.7119C372.633 30.7675 375.146 30.4033 377.548 29.6343V34.0591C375.197 34.9152 372.7 35.2981 370.201 35.1857C362.201 35.1857 359 29.5854 359 22.8095C359 16.0335 362.201 10.4332 370.201 10.4332Z" fill="#6CB345"/>
<path d="M395.141 15.4702V34.5733H390.292V15.4702H382.994V11.0454H402.431V15.4702H395.141Z" fill="#6CB345"/>
<path d="M409.583 34.5733V11.0454H414.195V34.5733H409.583Z" fill="#6CB345"/>
<path d="M433.494 35.1858C425.331 35.1858 422.522 30.01 422.522 22.8096C422.522 15.6092 425.331 10.4333 433.494 10.4333C441.658 10.4333 444.458 15.6092 444.458 22.8096C444.458 30.01 441.658 35.1858 433.494 35.1858ZM433.494 14.8989C428.319 14.8989 427.233 18.3359 427.233 22.8096C427.233 27.2833 428.319 30.7121 433.494 30.7121C438.67 30.7121 439.748 27.2833 439.748 22.8096C439.748 18.3359 438.621 14.8989 433.494 14.8989Z" fill="#6CB345"/>
<path d="M468.639 34.5733L456.361 19.699L456.41 34.5733H451.749V11.0454H454.998L467.276 25.9116L467.227 11.0454H471.888V34.5733H468.639Z" fill="#6CB345"/>
<path d="M66.1263 59.0156C67.5704 59.0719 68.9823 58.5789 70.0775 57.6359L68.6325 56.2808C67.9741 56.8786 67.1215 57.2179 66.2324 57.2359C65.8526 57.2418 65.4757 57.1681 65.1262 57.0194C64.7766 56.8708 64.4621 56.6505 64.2029 56.3728C63.9436 56.0951 63.7455 55.7662 63.6212 55.4073C63.4969 55.0483 63.4492 54.6673 63.4812 54.2888C63.4481 53.9136 63.494 53.5355 63.616 53.1791C63.738 52.8228 63.9335 52.4959 64.1896 52.2197C64.4458 51.9436 64.7571 51.7242 65.1033 51.5757C65.4495 51.4273 65.823 51.3531 66.1997 51.358C67.0772 51.3678 67.9213 51.6956 68.5754 52.2805L70.0203 50.8029C68.9621 49.9521 67.6297 49.5166 66.2732 49.5783C63.1873 49.5783 60.9831 51.4723 60.9831 54.2643V54.3868C60.9831 57.2033 63.0567 59.0564 66.1181 59.0564L66.1263 59.0156ZM71.6776 58.885H79.2699V57.1788H74.0859V55.1215H78.5841V53.399H74.0859V51.407H79.1882V49.6681H71.6613V58.885H71.6776ZM81.3924 58.885H88.5275V57.1788H83.8089V49.6681H81.3598V58.885H81.3924ZM90.1031 58.885H97.6873V57.1788H92.5033V55.1215H97.0015V53.399H92.5033V51.407H97.6219V49.6681H90.1031V58.885ZM99.8098 58.885H104.259C106.798 58.885 108.48 58.0196 108.48 56.3542V56.2889C108.48 55.0807 107.663 54.4766 106.398 54.0929C106.84 53.965 107.231 53.7016 107.515 53.3398C107.799 52.978 107.962 52.5361 107.982 52.0764V52.0356C107.981 51.7293 107.906 51.4278 107.764 51.1564C107.622 50.885 107.416 50.6518 107.165 50.4764C106.263 49.8816 105.191 49.5951 104.112 49.66H99.7772V58.8768L99.8098 58.885ZM105.598 52.3948C105.598 53.0888 104.912 53.4316 103.843 53.4316H102.161V51.358H103.957C104.994 51.358 105.59 51.7091 105.59 52.3785L105.598 52.3948ZM106.096 56.1093C106.096 56.8196 105.41 57.1951 104.324 57.1951H102.161V55.0317H104.275C105.475 55.0317 106.096 55.4399 106.096 56.1012V56.1093ZM110.423 58.885H112.872V55.8563H114.382L116.537 58.885H119.305L116.856 55.4644C117.468 55.3154 118.014 54.9664 118.406 54.4725C118.797 53.9786 119.013 53.3681 119.019 52.7377V52.6806C119.033 52.2737 118.951 51.8693 118.781 51.4995C118.611 51.1296 118.357 50.8045 118.039 50.5498C117.111 49.9128 115.996 49.6026 114.872 49.6681H110.48V58.885H110.423ZM112.872 54.1745V51.3907H114.603C115.835 51.3907 116.554 51.856 116.554 52.7785C116.554 53.5949 115.884 54.1664 114.652 54.1664L112.872 54.1745ZM120.44 58.885H122.889L123.705 56.8849H127.722L128.587 58.885H131.085L126.905 49.6191H124.603L120.415 58.885H120.44ZM124.456 55.195L125.722 52.1989L126.987 55.195H124.456ZM133.714 58.885H136.114V51.4642H139.053V49.6681H130.767V51.4642H133.698V58.9177L133.714 58.885ZM140.678 58.885H143.127V49.6681H140.678V58.885ZM145.576 58.885H147.943V53.3173L152.564 58.885H154.629V49.6681H152.262V55.0399L147.788 49.6681H145.576V58.885ZM162.058 59.0156C163.522 59.0223 164.959 58.627 166.214 57.8727V53.6031H161.789V55.2358H163.911V56.8686C163.374 57.1427 162.775 57.2748 162.173 57.2522C161.773 57.2831 161.371 57.2281 160.994 57.091C160.617 56.9539 160.273 56.7378 159.986 56.4573C159.7 56.1767 159.476 55.838 159.331 55.4641C159.185 55.0901 159.122 54.6894 159.144 54.2888V54.1908C159.134 53.8047 159.203 53.4205 159.347 53.062C159.491 52.7036 159.707 52.3785 159.981 52.1069C160.256 51.8352 160.584 51.6228 160.944 51.4828C161.304 51.3428 161.689 51.2781 162.075 51.2927C162.962 51.2676 163.829 51.5567 164.524 52.1091L165.961 50.6151C164.833 49.8606 163.495 49.4833 162.14 49.5375C158.972 49.5375 156.687 51.4968 156.687 54.2235V54.346C156.687 57.2278 158.956 59.0156 162.091 59.0156H162.058ZM175.218 59.0156C177.667 59.0156 179.3 57.8074 179.3 55.8481C179.3 53.7827 177.586 52.9418 175.602 52.9418C175.163 52.9359 174.725 52.9797 174.296 53.0724L174.435 51.3989H178.818V49.6845H172.434L172.1 54.2153L173.447 54.9093C173.971 54.723 174.523 54.6264 175.079 54.6235C176.165 54.6235 176.965 55.1134 176.965 55.9297C176.965 56.7461 176.263 57.2849 175.186 57.2849C174.34 57.2702 173.521 56.984 172.851 56.4685L171.496 57.889C172.582 58.6744 173.894 59.0842 175.235 59.0564L175.218 59.0156ZM185.382 59.0156C188.15 59.0156 189.946 57.1461 189.946 54.3296V54.1582C189.946 51.3417 188.15 49.4885 185.415 49.4885C182.68 49.4885 180.843 51.358 180.843 54.1745V54.346C180.843 57.1624 182.615 59.0156 185.382 59.0156ZM185.382 57.2767C184.133 57.2767 183.284 56.24 183.284 54.3052V54.1908C183.284 52.2397 184.1 51.2274 185.349 51.2274C186.599 51.2274 187.448 52.2642 187.448 54.199V54.3215C187.448 56.2563 186.631 57.2767 185.382 57.2767ZM198.02 58.8605H200.469V55.2031L204.273 49.6436H201.644L199.326 53.2683L197.024 49.6436H194.297L198.101 55.2276V58.8605H198.02ZM205.669 58.8605H213.253V57.1788H208.069V55.1215H212.567V53.399H208.069V51.407H213.188V49.6681H205.726V58.885L205.669 58.8605ZM214.535 58.8605H216.984L217.8 56.8604H221.817L222.69 58.8605H225.189L221.001 49.5947H218.788L214.608 58.8605H214.535ZM218.551 55.1705L219.833 52.1744L221.098 55.1705H218.551ZM226.715 58.8605H229.164V55.8318H230.683L232.83 58.8605H235.597L233.148 55.4399C233.762 55.2912 234.308 54.9425 234.701 54.4487C235.094 53.955 235.312 53.3444 235.32 52.7132V52.6561C235.333 52.2484 235.251 51.8431 235.08 51.473C234.908 51.1029 234.652 50.7783 234.332 50.5253C233.404 49.8871 232.289 49.5769 231.164 49.6436H226.78V58.8605H226.715ZM229.164 54.15V51.3662H230.895C232.136 51.3662 232.846 51.8315 232.846 52.754C232.846 53.5704 232.185 54.1419 230.952 54.1419L229.164 54.15ZM240.724 58.9748C242.994 58.9748 244.643 57.9217 244.643 56.2155C244.643 54.7786 243.549 54.0929 241.508 53.4643C239.695 52.8683 239.295 52.6479 239.295 52.0928C239.295 51.6193 239.81 51.2764 240.642 51.2764C241.523 51.3246 242.373 51.6218 243.092 52.1336L244.447 50.6804C243.335 49.926 242.018 49.5326 240.675 49.5538C238.43 49.5538 236.863 50.6478 236.863 52.2479C236.863 53.8316 238.144 54.4521 240.21 55.0807C241.843 55.5787 242.21 55.8971 242.21 56.3297C242.21 56.8685 241.647 57.2359 240.708 57.2359C239.658 57.199 238.645 56.8367 237.81 56.1991L236.373 57.6033C237.632 58.5018 239.145 58.9764 240.691 58.9585L240.724 58.9748ZM246.21 53.8316H248.798V51.807H246.21V53.8316ZM246.21 58.8605H248.798V56.8359H246.21V58.8605ZM256.48 58.8605H258.929V56.0522H260.293C262.742 56.0522 264.66 54.9501 264.66 52.8275C264.66 50.8682 263.027 49.6681 260.391 49.6681H256.505V58.885L256.48 58.8605ZM258.929 54.346V51.3662H260.244C261.525 51.3662 262.227 51.8968 262.227 52.8602C262.227 53.7173 261.525 54.3378 260.276 54.3378L258.929 54.346ZM266.277 58.8605H273.861V57.1788H268.677V55.1215H273.175V53.399H268.677V51.407H273.795V49.6681H266.277V58.885V58.8605ZM280.596 59.0156C283.682 59.0156 285.878 57.0726 285.878 54.3215V54.1582C285.878 51.407 283.714 49.4885 280.612 49.4885C277.51 49.4885 275.322 51.4233 275.322 54.1908V54.346C275.322 57.0971 277.494 59.0156 280.596 59.0156ZM280.596 57.2522C280.211 57.2628 279.829 57.192 279.473 57.0446C279.118 56.8972 278.797 56.6764 278.533 56.3967C278.269 56.117 278.066 55.7847 277.939 55.4215C277.812 55.0582 277.763 54.6723 277.796 54.2888V54.199C277.766 53.8155 277.816 53.4301 277.943 53.0669C278.07 52.7037 278.27 52.3705 278.531 52.0884C278.793 51.8062 279.109 51.581 279.462 51.4271C279.814 51.2731 280.195 51.1937 280.579 51.1937C280.964 51.1937 281.345 51.2731 281.697 51.4271C282.049 51.581 282.366 51.8062 282.628 52.0884C282.889 52.3705 283.089 52.7037 283.216 53.0669C283.343 53.4301 283.393 53.8155 283.363 54.199V54.2888C283.398 54.6693 283.352 55.0528 283.227 55.414C283.103 55.7753 282.904 56.1061 282.642 56.3846C282.381 56.6631 282.063 56.883 281.71 57.0297C281.358 57.1765 280.978 57.2468 280.596 57.2359V57.2522ZM287.894 58.885H290.343V56.0767H291.707C294.156 56.0767 296.082 54.9746 296.082 52.852C296.082 50.8927 294.45 49.6926 291.813 49.6926H287.927V58.9095L287.894 58.885ZM290.343 54.3705V51.3907H291.658C292.948 51.3907 293.641 51.9213 293.641 52.8846C293.641 53.7418 292.947 54.3623 291.69 54.3623L290.343 54.3705ZM297.691 58.885H304.826V57.1788H300.107V49.6681H297.658V58.885H297.691ZM306.401 58.885H313.985V57.1788H308.801V55.1215H313.308V53.399H308.801V51.407H313.92V49.6681H306.401V58.885ZM322.361 56.2155C322.64 56.2424 322.92 56.2137 323.187 56.1311C323.454 56.0484 323.702 55.9135 323.916 55.7342C324.13 55.5549 324.307 55.3348 324.435 55.0866C324.563 54.8385 324.641 54.5673 324.664 54.2888V54.199C324.572 53.655 324.29 53.1611 323.869 52.8049C323.447 52.4487 322.913 52.2533 322.361 52.2533C321.81 52.2533 321.276 52.4487 320.854 52.8049C320.433 53.1611 320.151 53.655 320.059 54.199V54.2888C320.08 54.5681 320.156 54.8404 320.284 55.0897C320.411 55.3389 320.588 55.5599 320.802 55.7396C321.017 55.9193 321.266 56.0541 321.534 56.1358C321.801 56.2176 322.083 56.2446 322.361 56.2155ZM330.28 58.885H332.729L333.546 56.8849H337.562L338.436 58.885H340.934L336.746 49.6191H334.452L330.264 58.885H330.28ZM334.297 55.195L335.53 52.1989L336.803 55.195H334.297ZM346.657 59.0156C348.101 59.0719 349.513 58.5789 350.608 57.6359L349.163 56.2808C348.505 56.8786 347.652 57.2179 346.763 57.2359C346.383 57.2418 346.006 57.1681 345.657 57.0194C345.307 56.8708 344.993 56.6505 344.733 56.3728C344.474 56.0951 344.276 55.7662 344.152 55.4073C344.027 55.0483 343.98 54.6673 344.012 54.2888C343.979 53.9136 344.025 53.5355 344.147 53.1791C344.269 52.8228 344.464 52.4959 344.72 52.2197C344.976 51.9436 345.288 51.7242 345.634 51.5757C345.98 51.4273 346.354 51.3531 346.73 51.358C347.611 51.3659 348.458 51.6938 349.114 52.2805L350.559 50.8029C349.501 49.9521 348.168 49.5166 346.812 49.5783C343.726 49.5783 341.522 51.4723 341.522 54.2643V54.3868C341.522 57.2033 343.595 59.0564 346.657 59.0564V59.0156ZM354.771 58.885H357.221V51.4642H360.151V49.6681H351.8V51.4642H354.731V58.9177L354.771 58.885ZM361.735 58.885H364.184V49.6681H361.735V58.885ZM371.491 59.0401C374.577 59.0401 376.773 57.0971 376.773 54.346V54.1827C376.773 51.4315 374.609 49.513 371.507 49.513C368.405 49.513 366.217 51.4478 366.217 54.2153V54.3705C366.217 57.1216 368.389 59.0401 371.491 59.0401ZM371.491 57.2767C371.106 57.2873 370.724 57.2165 370.368 57.0691C370.013 56.9217 369.692 56.7009 369.428 56.4212C369.164 56.1415 368.961 55.8092 368.834 55.446C368.707 55.0827 368.658 54.6968 368.691 54.3133V54.2235C368.661 53.84 368.711 53.4546 368.838 53.0914C368.965 52.7281 369.165 52.395 369.426 52.1128C369.688 51.8307 370.004 51.6055 370.357 51.4516C370.709 51.2976 371.09 51.2182 371.475 51.2182C371.859 51.2182 372.24 51.2976 372.592 51.4516C372.945 51.6055 373.261 51.8307 373.523 52.1128C373.784 52.395 373.984 52.7281 374.111 53.0914C374.238 53.4546 374.288 53.84 374.258 54.2235V54.3133C374.293 54.6938 374.247 55.0773 374.122 55.4385C373.998 55.7998 373.799 56.1306 373.537 56.4091C373.276 56.6876 372.958 56.9075 372.605 57.0542C372.253 57.201 371.873 57.2712 371.491 57.2604V57.2767ZM378.789 58.9095H381.157V53.3418L385.777 58.9095H387.843V49.6681H385.475V55.0399L381.01 49.6681H378.797V58.885L378.789 58.9095ZM396.643 56.24C396.921 56.2669 397.202 56.2382 397.469 56.1555C397.736 56.0729 397.984 55.938 398.198 55.7587C398.412 55.5794 398.589 55.3593 398.717 55.1111C398.845 54.863 398.923 54.5918 398.945 54.3133V54.2235C398.849 53.6844 398.566 53.1965 398.145 52.8452C397.725 52.4938 397.195 52.3012 396.647 52.3012C396.1 52.3012 395.569 52.4938 395.149 52.8452C394.729 53.1965 394.446 53.6844 394.349 54.2235V54.3133C394.37 54.5918 394.446 54.8634 394.573 55.1121C394.7 55.3607 394.876 55.5813 395.09 55.7609C395.303 55.9405 395.551 56.0755 395.818 56.1577C396.085 56.24 396.365 56.268 396.643 56.24ZM407.632 59.0238C408.586 59.075 409.531 58.8079 410.318 58.2645C410.655 57.9893 410.922 57.6377 411.097 57.2388C411.271 56.8399 411.348 56.4052 411.322 55.9705V49.6681H408.873V55.8563C408.898 56.0387 408.881 56.2245 408.823 56.3993C408.765 56.5741 408.667 56.7332 408.538 56.8642C408.408 56.9952 408.25 57.0947 408.076 57.1549C407.902 57.2151 407.716 57.2345 407.534 57.2114C406.915 57.1936 406.328 56.9325 405.901 56.4849L404.432 57.8319C405.306 58.6217 406.454 59.0404 407.632 58.9993V59.0238ZM418.032 59.0238C420.734 59.0238 422.506 57.7992 422.506 55.2603V49.6681H420.106V55.3827C420.106 55.924 419.891 56.4432 419.508 56.8259C419.125 57.2087 418.606 57.4237 418.065 57.4237C417.524 57.4237 417.005 57.2087 416.622 56.8259C416.239 56.4432 416.024 55.924 416.024 55.3827V49.6681H413.575V55.3011C413.575 57.7911 415.306 59.0319 417.991 59.0319L418.032 59.0238ZM428.221 59.0238C430.49 59.0238 432.139 57.9707 432.139 56.2644C432.139 54.8276 431.037 54.1419 429.004 53.5133C427.184 52.9173 426.784 52.6969 426.784 52.1417C426.784 51.6682 427.306 51.3254 428.139 51.3254C429.02 51.3749 429.869 51.672 430.588 52.1826L431.943 50.7294C430.832 49.9749 429.515 49.5815 428.172 49.6028C425.918 49.6028 424.351 50.6968 424.351 52.2969C424.351 53.8806 425.641 54.5011 427.706 55.1297C429.339 55.6277 429.706 55.946 429.706 56.3787C429.706 56.9175 429.135 57.2849 428.204 57.2849C427.154 57.248 426.141 56.8857 425.306 56.2481L423.869 57.6523C425.128 58.5528 426.641 59.0276 428.188 59.0074L428.221 59.0238ZM436.303 58.9095H438.703V51.4642H441.634V49.6681H433.339V51.4642H436.278V58.9177L436.303 58.9095ZM443.266 58.9095H445.715V49.6681H443.266V58.885V58.9095ZM452.883 59.0401C454.327 59.0964 455.739 58.6034 456.835 57.6604L455.381 56.3053C454.723 56.9031 453.87 57.2424 452.981 57.2604C452.601 57.2663 452.225 57.1926 451.875 57.0439C451.525 56.8953 451.211 56.675 450.952 56.3973C450.693 56.1196 450.494 55.7907 450.37 55.4318C450.246 55.0728 450.198 54.6918 450.23 54.3133C450.197 53.9381 450.243 53.56 450.365 53.2036C450.487 52.8472 450.682 52.5204 450.939 52.2442C451.195 51.9681 451.506 51.7487 451.852 51.6002C452.198 51.4518 452.572 51.3776 452.949 51.3825C453.829 51.3904 454.676 51.7183 455.332 52.305L456.786 50.8274C455.724 49.9767 454.389 49.5414 453.03 49.6028C449.944 49.6028 447.748 51.4968 447.748 54.2888V54.4113C447.748 57.2277 449.814 59.0809 452.883 59.0809V59.0401ZM458.435 58.9095H466.019V57.1788H460.835V55.1215H465.333V53.399H460.827V51.407H465.945V49.6681H458.426V58.885L458.435 58.9095Z" fill="#0086A9"/>
</svg>
