{
  "accessors": [
    {
      "bufferView": 1,
      "componentType": 5126,
      "count": 35528,
      "max": [
        124.66123962402344,
        121.94429779052734,
        -70.9643325805664
      ],
      "min": [
        -122.28657531738281,
        -125.01250457763672,
        -82.16022491455078
      ],
      "type": "VEC3"
    },
    {
      "bufferView": 1,
      "byteOffset": 426336,
      "componentType": 5126,
      "count": 35528,
      "max": [
        0.9972327947616577,
        0.9972400665283203,
        1.0
      ],
      "min": [
        -0.9971997737884521,
        -0.9978455901145935,
        -1.0
      ],
      "type": "VEC3"
    },
    {
      "bufferView": 2,
      "componentType": 5126,
      "count": 35528,
      "max": [
        0.686274528503418,
        0.6941176652908325,
        0.7019608020782471,
        1.0
      ],
      "min": [
        0.0,
        0.0,
        0.0,
        1.0
      ],
      "type": "VEC4"
    },
    {
      "bufferView": 0,
      "componentType": 5125,
      "count": 201582,
      "type": "SCALAR"
    },
    {
      "bufferView": 1,
      "byteOffset": 852672,
      "componentType": 5126,
      "count": 25540,
      "max": [
        52.52820587158203,
        87.89318084716797,
        59.05997085571289
      ],
      "min": [
        -50.308353424072266,
        -113.73076629638672,
        -77.97969055175781
      ],
      "type": "VEC3"
    },
    {
      "bufferView": 1,
      "byteOffset": 1159152,
      "componentType": 5126,
      "count": 25540,
      "max": [
        0.9999841451644897,
        1.0,
        1.0
      ],
      "min": [
        -0.9999921917915344,
        -1.0,
        -0.9999999403953552
      ],
      "type": "VEC3"
    },
    {
      "bufferView": 2,
      "byteOffset": 568448,
      "componentType": 5126,
      "count": 25540,
      "max": [
        0.9098039269447327,
        0.8117647171020508,
        0.6470588445663452,
        1.0
      ],
      "min": [
        0.003921568859368563,
        0.03921568766236305,
        0.0,
        1.0
      ],
      "type": "VEC4"
    },
    {
      "bufferView": 0,
      "byteOffset": 806328,
      "componentType": 5125,
      "count": 152712,
      "type": "SCALAR"
    },
    {
      "bufferView": 1,
      "byteOffset": 1465632,
      "componentType": 5126,
      "count": 65532,
      "max": [
        56.47926712036133,
        96.6248550415039,
        72.5848388671875
      ],
      "min": [
        -71.76155853271484,
        -64.32244873046875,
        -65.0916748046875
      ],
      "type": "VEC3"
    },
    {
      "bufferView": 1,
      "byteOffset": 2252016,
      "componentType": 5126,
      "count": 65532,
      "max": [
        0.9999895095825195,
        0.9999611377716064,
        0.9999613165855408
      ],
      "min": [
        -0.9999977946281433,
        -0.9999458193778992,
        -0.9999924898147583
      ],
      "type": "VEC3"
    },
    {
      "bufferView": 2,
      "byteOffset": 977088,
      "componentType": 5126,
      "count": 65532,
      "max": [
        0.929411768913269,
        0.8039215803146362,
        0.25882354378700256,
        1.0
      ],
      "min": [
        0.0,
        0.0,
        0.0,
        1.0
      ],
      "type": "VEC4"
    },
    {
      "bufferView": 0,
      "byteOffset": 1417176,
      "componentType": 5125,
      "count": 380697,
      "type": "SCALAR"
    },
    {
      "bufferView": 1,
      "byteOffset": 3038400,
      "componentType": 5126,
      "count": 18863,
      "max": [
        52.9152946472168,
        71.84153747558594,
        43.291297912597656
      ],
      "min": [
        -71.7353515625,
        -40.80793380737305,
        -46.460262298583984
      ],
      "type": "VEC3"
    },
    {
      "bufferView": 1,
      "byteOffset": 3264756,
      "componentType": 5126,
      "count": 18863,
      "max": [
        0.999805212020874,
        0.9941635727882385,
        0.9997736811637878
      ],
      "min": [
        -0.9999809861183167,
        -0.999876081943512,
        -0.9998915195465088
      ],
      "type": "VEC3"
    },
    {
      "bufferView": 2,
      "byteOffset": 2025600,
      "componentType": 5126,
      "count": 18863,
      "max": [
        0.9254902005195618,
        0.800000011920929,
        0.2549019753932953,
        1.0
      ],
      "min": [
        0.0,
        0.0,
        0.0,
        1.0
      ],
      "type": "VEC4"
    },
    {
      "bufferView": 0,
      "byteOffset": 2939964,
      "componentType": 5125,
      "count": 102237,
      "type": "SCALAR"
    },
    {
      "bufferView": 1,
      "byteOffset": 3491112,
      "componentType": 5126,
      "count": 11523,
      "max": [
        -5.50710391998291,
        -90.27084350585938,
        33.525455474853516
      ],
      "min": [
        -25.451810836791992,
        -103.99542236328125,
        13.396580696105957
      ],
      "type": "VEC3"
    },
    {
      "bufferView": 1,
      "byteOffset": 3629388,
      "componentType": 5126,
      "count": 11523,
      "max": [
        0.9925861954689026,
        0.9999593496322632,
        0.9996387362480164
      ],
      "min": [
        -0.9970707893371582,
        -0.999414324760437,
        -0.9992395043373108
      ],
      "type": "VEC3"
    },
    {
      "bufferView": 2,
      "byteOffset": 2327408,
      "componentType": 5126,
      "count": 11523,
      "max": [
        1.0,
        0.9725490212440491,
        0.47843137383461,
        1.0
      ],
      "min": [
        1.0,
        0.9725490212440491,
        0.47843137383461,
        1.0
      ],
      "type": "VEC4"
    },
    {
      "bufferView": 0,
      "byteOffset": 3348912,
      "componentType": 5125,
      "count": 69114,
      "type": "SCALAR"
    }
  ],
  "asset": {
    "extras": {
      "author": "Bunnyyyy (https://sketchfab.com/bunnylovesu)",
      "license": "CC-BY-4.0 (http://creativecommons.org/licenses/by/4.0/)",
      "source": "https://sketchfab.com/3d-models/smug-snail-ca9aee80464f4f21b5e2a6043df20c7b",
      "title": "Smug Snail"
    },
    "generator": "Sketchfab-12.67.0",
    "version": "2.0"
  },
  "bufferViews": [
    {
      "buffer": 0,
      "byteLength": 3625368,
      "name": "floatBufferViews",
      "target": 34963
    },
    {
      "buffer": 0,
      "byteLength": 3767664,
      "byteOffset": 3625368,
      "byteStride": 12,
      "name": "floatBufferViews",
      "target": 34962
    },
    {
      "buffer": 0,
      "byteLength": 2511776,
      "byteOffset": 7393032,
      "byteStride": 16,
      "name": "floatBufferViews",
      "target": 34962
    }
  ],
  "buffers": [
    {
      "byteLength": 9904808,
      "uri": "snail.bin"
    }
  ],
  "extensionsUsed": [
    "KHR_materials_unlit"
  ],
  "materials": [
    {
      "extensions": {
        "KHR_materials_unlit": {}
      },
      "name": "Base",
      "pbrMetallicRoughness": {
        "metallicFactor": 0.0
      }
    },
    {
      "extensions": {
        "KHR_materials_unlit": {}
      },
      "name": "Etana",
      "pbrMetallicRoughness": {
        "metallicFactor": 0.0
      }
    },
    {
      "extensions": {
        "KHR_materials_unlit": {}
      },
      "name": "Shell",
      "pbrMetallicRoughness": {
        "metallicFactor": 0.0
      }
    },
    {
      "alphaMode": "BLEND",
      "emissiveFactor": [
        0.7993636190858422,
        0.7365223513110183,
        0.2069963102227658
      ],
      "extensions": {
        "KHR_materials_unlit": {}
      },
      "name": "Text",
      "pbrMetallicRoughness": {
        "baseColorFactor": [
          1.0,
          1.0,
          1.0,
          0.5290719697
        ],
        "metallicFactor": 0.0
      }
    }
  ],
  "meshes": [
    {
      "name": "Object_0",
      "primitives": [
        {
          "attributes": {
            "COLOR_0": 2,
            "NORMAL": 1,
            "POSITION": 0
          },
          "indices": 3,
          "material": 0,
          "mode": 4
        }
      ]
    },
    {
      "name": "Object_1",
      "primitives": [
        {
          "attributes": {
            "COLOR_0": 6,
            "NORMAL": 5,
            "POSITION": 4
          },
          "indices": 7,
          "material": 1,
          "mode": 4
        }
      ]
    },
    {
      "name": "Object_2",
      "primitives": [
        {
          "attributes": {
            "COLOR_0": 10,
            "NORMAL": 9,
            "POSITION": 8
          },
          "indices": 11,
          "material": 2,
          "mode": 4
        }
      ]
    },
    {
      "name": "Object_3",
      "primitives": [
        {
          "attributes": {
            "COLOR_0": 14,
            "NORMAL": 13,
            "POSITION": 12
          },
          "indices": 15,
          "material": 2,
          "mode": 4
        }
      ]
    },
    {
      "name": "Object_4",
      "primitives": [
        {
          "attributes": {
            "COLOR_0": 18,
            "NORMAL": 17,
            "POSITION": 16
          },
          "indices": 19,
          "material": 3,
          "mode": 4
        }
      ]
    }
  ],
  "nodes": [
    {
      "children": [
        1
      ],
      "matrix": [
        1.0,
        0.0,
        0.0,
        0.0,
        0.0,
        2.220446049250313e-16,
        -1.0,
        0.0,
        0.0,
        1.0,
        2.220446049250313e-16,
        0.0,
        0.0,
        0.0,
        0.0,
        1.0
      ],
      "name": "Sketchfab_model"
    },
    {
      "children": [
        2,
        3,
        4,
        5,
        6
      ],
      "name": "Etana.obj.cleaner.materialmerger.gles"
    },
    {
      "mesh": 0,
      "name": "Object_2"
    },
    {
      "mesh": 1,
      "name": "Object_3"
    },
    {
      "mesh": 2,
      "name": "Object_4"
    },
    {
      "mesh": 3,
      "name": "Object_5"
    },
    {
      "mesh": 4,
      "name": "Object_6"
    }
  ],
  "scene": 0,
  "scenes": [
    {
      "name": "Sketchfab_Scene",
      "nodes": [
        0
      ]
    }
  ]
}
