{
  "accessors": [
    {
      "bufferView": 1,
      "componentType": 5126,
      "count": 5561,
      "max": [
        1.6300253868103027,
        0.32488930225372314,
        3.9138598442077637
      ],
      "min": [
        -1.630024790763855,
        -0.2773439288139343,
        2.431884527206421
      ],
      "type": "VEC3"
    },
    {
      "bufferView": 1,
      "byteOffset": 66732,
      "componentType": 5126,
      "count": 5561,
      "max": [
        0.9988678097724915,
        0.9999786019325256,
        0.9920128583908081
      ],
      "min": [
        -0.9986926317214966,
        -0.9994790554046631,
        -0.9980536699295044
      ],
      "type": "VEC3"
    },
    {
      "bufferView": 2,
      "componentType": 5126,
      "count": 5561,
      "max": [
        0.7215686440467834,
        0.7372549176216125,
        0.7568627595901489,
        1.0
      ],
      "min": [
        0.5764706134796143,
        0.6000000238418579,
        0.6352941393852234,
        1.0
      ],
      "type": "VEC4"
    },
    {
      "bufferView": 0,
      "componentType": 5125,
      "count": 33336,
      "type": "SCALAR"
    },
    {
      "bufferView": 1,
      "byteOffset": 133464,
      "componentType": 5126,
      "count": 1972,
      "max": [
        1.2710617780685425,
        -0.8142980337142944,
        2.0671329498291016
      ],
      "min": [
        -1.271061658859253,
        -1.2678017616271973,
        1.0756707191467285
      ],
      "type": "VEC3"
    },
    {
      "bufferView": 1,
      "byteOffset": 157128,
      "componentType": 5126,
      "count": 1972,
      "max": [
        0.9994105696678162,
        0.9985560178756714,
        0.9973176121711731
      ],
      "min": [
        -0.9997808933258057,
        -0.9930673837661743,
        -0.9998152852058411
      ],
      "type": "VEC3"
    },
    {
      "bufferView": 2,
      "byteOffset": 88976,
      "componentType": 5126,
      "count": 1972,
      "max": [
        0.7215686440467834,
        0.7372549176216125,
        0.8470588326454163,
        1.0
      ],
      "min": [
        0.572549045085907,
        0.6627451181411743,
        0.7529411911964417,
        1.0
      ],
      "type": "VEC4"
    },
    {
      "bufferView": 0,
      "byteOffset": 133344,
      "componentType": 5125,
      "count": 11778,
      "type": "SCALAR"
    },
    {
      "bufferView": 1,
      "byteOffset": 180792,
      "componentType": 5126,
      "count": 1830,
      "max": [
        1.3785576820373535,
        -0.7746128439903259,
        2.3292746543884277
      ],
      "min": [
        -1.3785967826843262,
        -1.4385815858840942,
        1.9010885953903198
      ],
      "type": "VEC3"
    },
    {
      "bufferView": 1,
      "byteOffset": 202752,
      "componentType": 5126,
      "count": 1830,
      "max": [
        0.999809205532074,
        0.9972099661827087,
        0.9899736642837524
      ],
      "min": [
        -0.9996976256370544,
        -0.9989177584648132,
        -0.9996320605278015
      ],
      "type": "VEC3"
    },
    {
      "bufferView": 2,
      "byteOffset": 120528,
      "componentType": 5126,
      "count": 1830,
      "max": [
        0.7215686440467834,
        0.7372549176216125,
        0.7568627595901489,
        1.0
      ],
      "min": [
        0.250980406999588,
        0.250980406999588,
        0.25882354378700256,
        1.0
      ],
      "type": "VEC4"
    },
    {
      "bufferView": 0,
      "byteOffset": 180456,
      "componentType": 5125,
      "count": 10752,
      "type": "SCALAR"
    },
    {
      "bufferView": 1,
      "byteOffset": 224712,
      "componentType": 5126,
      "count": 690,
      "max": [
        0.22420062124729156,
        -1.5008867979049683,
        2.2034912109375
      ],
      "min": [
        -0.15877750515937805,
        -1.6112085580825806,
        1.77839195728302
      ],
      "type": "VEC3"
    },
    {
      "bufferView": 1,
      "byteOffset": 232992,
      "componentType": 5126,
      "count": 690,
      "max": [
        0.9770122766494751,
        0.9999415278434753,
        0.988498330116272
      ],
      "min": [
        -0.9994505047798157,
        -0.999941885471344,
        -0.9993777871131897
      ],
      "type": "VEC3"
    },
    {
      "bufferView": 2,
      "byteOffset": 149808,
      "componentType": 5126,
      "count": 690,
      "max": [
        0.9607843160629272,
        0.9607843160629272,
        0.9686274528503418,
        1.0
      ],
      "min": [
        0.250980406999588,
        0.250980406999588,
        0.25882354378700256,
        1.0
      ],
      "type": "VEC4"
    },
    {
      "bufferView": 0,
      "byteOffset": 223464,
      "componentType": 5125,
      "count": 2820,
      "type": "SCALAR"
    },
    {
      "bufferView": 1,
      "byteOffset": 241272,
      "componentType": 5126,
      "count": 26318,
      "max": [
        1.5603420734405518,
        1.5511053800582886,
        3.6878833770751953
      ],
      "min": [
        -1.5603408813476563,
        -1.5727694034576416,
        1.0093963146209717
      ],
      "type": "VEC3"
    },
    {
      "bufferView": 1,
      "byteOffset": 557088,
      "componentType": 5126,
      "count": 26318,
      "max": [
        0.9999730587005615,
        0.9999290108680725,
        0.9999547600746155
      ],
      "min": [
        -0.9999724626541138,
        -0.9999333620071411,
        -0.9999998211860657
      ],
      "type": "VEC3"
    },
    {
      "bufferView": 2,
      "byteOffset": 160848,
      "componentType": 5126,
      "count": 26318,
      "max": [
        0.7960784435272217,
        0.8196078538894653,
        0.8470588326454163,
        1.0
      ],
      "min": [
        0.5764706134796143,
        0.6000000238418579,
        0.6352941393852234,
        1.0
      ],
      "type": "VEC4"
    },
    {
      "bufferView": 0,
      "byteOffset": 234744,
      "componentType": 5125,
      "count": 157896,
      "type": "SCALAR"
    },
    {
      "bufferView": 1,
      "byteOffset": 872904,
      "componentType": 5126,
      "count": 1740,
      "max": [
        1.4840465784072876,
        0.8018478751182556,
        0.9312542676925659
      ],
      "min": [
        0.39913982152938843,
        0.12974350154399872,
        0.11715465039014816
      ],
      "type": "VEC3"
    },
    {
      "bufferView": 1,
      "byteOffset": 893784,
      "componentType": 5126,
      "count": 1740,
      "max": [
        0.9999097585678101,
        0.9990968704223633,
        0.9998428225517273
      ],
      "min": [
        -0.990172266960144,
        -0.9998944997787476,
        -0.9997556805610657
      ],
      "type": "VEC3"
    },
    {
      "bufferView": 2,
      "byteOffset": 581936,
      "componentType": 5126,
      "count": 1740,
      "max": [
        0.7215686440467834,
        0.7372549176216125,
        0.7568627595901489,
        1.0
      ],
      "min": [
        0.5764706134796143,
        0.6000000238418579,
        0.6352941393852234,
        1.0
      ],
      "type": "VEC4"
    },
    {
      "bufferView": 0,
      "byteOffset": 866328,
      "componentType": 5125,
      "count": 10428,
      "type": "SCALAR"
    },
    {
      "bufferView": 1,
      "byteOffset": 914664,
      "componentType": 5126,
      "count": 3076,
      "max": [
        0.536227285861969,
        -0.46998298168182373,
        0.5176509618759155
      ],
      "min": [
        -0.536227285861969,
        -0.8253878355026245,
        -0.010667500086128712
      ],
      "type": "VEC3"
    },
    {
      "bufferView": 1,
      "byteOffset": 951576,
      "componentType": 5126,
      "count": 3076,
      "max": [
        0.9999970197677612,
        0.9997372627258301,
        0.9986556768417358
      ],
      "min": [
        -0.9999970197677612,
        -0.9989631772041321,
        -0.9996566772460938
      ],
      "type": "VEC3"
    },
    {
      "bufferView": 2,
      "byteOffset": 609776,
      "componentType": 5126,
      "count": 3076,
      "max": [
        0.7215686440467834,
        0.7372549176216125,
        0.7568627595901489,
        1.0
      ],
      "min": [
        0.5764706134796143,
        0.6000000238418579,
        0.6352941393852234,
        1.0
      ],
      "type": "VEC4"
    },
    {
      "bufferView": 0,
      "byteOffset": 908040,
      "componentType": 5125,
      "count": 18432,
      "type": "SCALAR"
    },
    {
      "bufferView": 1,
      "byteOffset": 988488,
      "componentType": 5126,
      "count": 6575,
      "max": [
        0.9201119542121887,
        0.7112433314323425,
        1.3437891006469727
      ],
      "min": [
        -0.9201297760009766,
        -0.7112608551979065,
        -0.023938950151205063
      ],
      "type": "VEC3"
    },
    {
      "bufferView": 1,
      "byteOffset": 1067388,
      "componentType": 5126,
      "count": 6575,
      "max": [
        0.9990841746330261,
        0.9999121427536011,
        0.9998323321342468
      ],
      "min": [
        -0.9991132616996765,
        -0.9999176859855652,
        -0.9999204277992249
      ],
      "type": "VEC3"
    },
    {
      "bufferView": 2,
      "byteOffset": 658992,
      "componentType": 5126,
      "count": 6575,
      "max": [
        0.7215686440467834,
        0.7372549176216125,
        0.7568627595901489,
        1.0
      ],
      "min": [
        0.5764706134796143,
        0.5960784554481506,
        0.6352941393852234,
        1.0
      ],
      "type": "VEC4"
    },
    {
      "bufferView": 0,
      "byteOffset": 981768,
      "componentType": 5125,
      "count": 39438,
      "type": "SCALAR"
    }
  ],
  "asset": {
    "extras": {
      "author": "limjieen (https://sketchfab.com/limjieen)",
      "license": "CC-BY-4.0 (http://creativecommons.org/licenses/by/4.0/)",
      "source": "https://sketchfab.com/3d-models/cute-cat-d870637936c84c968adcb1bafd1c31c2",
      "title": "Cute Cat"
    },
    "generator": "Sketchfab-12.66.0",
    "version": "2.0"
  },
  "bufferViews": [
    {
      "buffer": 0,
      "byteLength": 1139520,
      "name": "floatBufferViews",
      "target": 34963
    },
    {
      "buffer": 0,
      "byteLength": 1146288,
      "byteOffset": 1139520,
      "byteStride": 12,
      "name": "floatBufferViews",
      "target": 34962
    },
    {
      "buffer": 0,
      "byteLength": 764192,
      "byteOffset": 2285808,
      "byteStride": 16,
      "name": "floatBufferViews",
      "target": 34962
    }
  ],
  "buffers": [
    {
      "byteLength": 3050000,
      "uri": "scene.bin"
    }
  ],
  "materials": [
    {
      "doubleSided": true,
      "name": "material_0",
      "pbrMetallicRoughness": {
        "metallicFactor": 0.0,
        "roughnessFactor": 0.6
      }
    },
    {
      "doubleSided": true,
      "name": "material_1",
      "pbrMetallicRoughness": {
        "metallicFactor": 0.0,
        "roughnessFactor": 0.6
      }
    },
    {
      "doubleSided": true,
      "name": "material_2",
      "pbrMetallicRoughness": {
        "metallicFactor": 0.0,
        "roughnessFactor": 0.6
      }
    },
    {
      "doubleSided": true,
      "name": "material_3",
      "pbrMetallicRoughness": {
        "metallicFactor": 0.0,
        "roughnessFactor": 0.6
      }
    },
    {
      "doubleSided": true,
      "name": "material_4",
      "pbrMetallicRoughness": {
        "metallicFactor": 0.0,
        "roughnessFactor": 0.6
      }
    },
    {
      "doubleSided": true,
      "name": "material_5",
      "pbrMetallicRoughness": {
        "metallicFactor": 0.0,
        "roughnessFactor": 0.6
      }
    },
    {
      "doubleSided": true,
      "name": "material_6",
      "pbrMetallicRoughness": {
        "metallicFactor": 0.0,
        "roughnessFactor": 0.6
      }
    },
    {
      "doubleSided": true,
      "name": "material_7",
      "pbrMetallicRoughness": {
        "metallicFactor": 0.0,
        "roughnessFactor": 0.7374110014653218
      }
    }
  ],
  "meshes": [
    {
      "name": "Object_0",
      "primitives": [
        {
          "attributes": {
            "COLOR_0": 2,
            "NORMAL": 1,
            "POSITION": 0
          },
          "indices": 3,
          "material": 7,
          "mode": 4
        }
      ]
    },
    {
      "name": "Object_1",
      "primitives": [
        {
          "attributes": {
            "COLOR_0": 6,
            "NORMAL": 5,
            "POSITION": 4
          },
          "indices": 7,
          "material": 6,
          "mode": 4
        }
      ]
    },
    {
      "name": "Object_2",
      "primitives": [
        {
          "attributes": {
            "COLOR_0": 10,
            "NORMAL": 9,
            "POSITION": 8
          },
          "indices": 11,
          "material": 5,
          "mode": 4
        }
      ]
    },
    {
      "name": "Object_3",
      "primitives": [
        {
          "attributes": {
            "COLOR_0": 14,
            "NORMAL": 13,
            "POSITION": 12
          },
          "indices": 15,
          "material": 4,
          "mode": 4
        }
      ]
    },
    {
      "name": "Object_4",
      "primitives": [
        {
          "attributes": {
            "COLOR_0": 18,
            "NORMAL": 17,
            "POSITION": 16
          },
          "indices": 19,
          "material": 3,
          "mode": 4
        }
      ]
    },
    {
      "name": "Object_5",
      "primitives": [
        {
          "attributes": {
            "COLOR_0": 22,
            "NORMAL": 21,
            "POSITION": 20
          },
          "indices": 23,
          "material": 2,
          "mode": 4
        }
      ]
    },
    {
      "name": "Object_6",
      "primitives": [
        {
          "attributes": {
            "COLOR_0": 26,
            "NORMAL": 25,
            "POSITION": 24
          },
          "indices": 27,
          "material": 1,
          "mode": 4
        }
      ]
    },
    {
      "name": "Object_7",
      "primitives": [
        {
          "attributes": {
            "COLOR_0": 30,
            "NORMAL": 29,
            "POSITION": 28
          },
          "indices": 31,
          "material": 0,
          "mode": 4
        }
      ]
    }
  ],
  "nodes": [
    {
      "children": [
        1
      ],
      "matrix": [
        1.0,
        0.0,
        0.0,
        0.0,
        0.0,
        2.220446049250313e-16,
        -1.0,
        0.0,
        0.0,
        1.0,
        2.220446049250313e-16,
        0.0,
        0.0,
        0.0,
        0.0,
        1.0
      ],
      "name": "Sketchfab_model"
    },
    {
      "children": [
        2,
        4,
        6,
        8,
        10,
        12,
        14,
        16
      ],
      "name": "zbrush_concat.osgb.cleaner.materialmerger.gles"
    },
    {
      "children": [
        3
      ],
      "name": "/sketchfab-data/processing/models/e256a5780b8146198a890f7a3be9ffda/d870637936c84c968adcb1bafd1c31c2/f53eadc4c2ef4da0b984de9ce2dbaf6b/preprocess/SubTool-7-6720696.OBJ"
    },
    {
      "mesh": 0,
      "name": "Object_3"
    },
    {
      "children": [
        5
      ],
      "name": "/sketchfab-data/processing/models/e256a5780b8146198a890f7a3be9ffda/d870637936c84c968adcb1bafd1c31c2/f53eadc4c2ef4da0b984de9ce2dbaf6b/preprocess/SubTool-6-6720696.OBJ"
    },
    {
      "mesh": 1,
      "name": "Object_5"
    },
    {
      "children": [
        7
      ],
      "name": "/sketchfab-data/processing/models/e256a5780b8146198a890f7a3be9ffda/d870637936c84c968adcb1bafd1c31c2/f53eadc4c2ef4da0b984de9ce2dbaf6b/preprocess/SubTool-5-4049447.OBJ"
    },
    {
      "mesh": 2,
      "name": "Object_7"
    },
    {
      "children": [
        9
      ],
      "name": "/sketchfab-data/processing/models/e256a5780b8146198a890f7a3be9ffda/d870637936c84c968adcb1bafd1c31c2/f53eadc4c2ef4da0b984de9ce2dbaf6b/preprocess/SubTool-4-1386803.OBJ"
    },
    {
      "mesh": 3,
      "name": "Object_9"
    },
    {
      "children": [
        11
      ],
      "name": "/sketchfab-data/processing/models/e256a5780b8146198a890f7a3be9ffda/d870637936c84c968adcb1bafd1c31c2/f53eadc4c2ef4da0b984de9ce2dbaf6b/preprocess/SubTool-3-6720696.OBJ"
    },
    {
      "mesh": 4,
      "name": "Object_11"
    },
    {
      "children": [
        13
      ],
      "name": "/sketchfab-data/processing/models/e256a5780b8146198a890f7a3be9ffda/d870637936c84c968adcb1bafd1c31c2/f53eadc4c2ef4da0b984de9ce2dbaf6b/preprocess/SubTool-2-10233600.OBJ"
    },
    {
      "mesh": 5,
      "name": "Object_13"
    },
    {
      "children": [
        15
      ],
      "name": "/sketchfab-data/processing/models/e256a5780b8146198a890f7a3be9ffda/d870637936c84c968adcb1bafd1c31c2/f53eadc4c2ef4da0b984de9ce2dbaf6b/preprocess/SubTool-1-10233600.OBJ"
    },
    {
      "mesh": 6,
      "name": "Object_15"
    },
    {
      "children": [
        17
      ],
      "name": "/sketchfab-data/processing/models/e256a5780b8146198a890f7a3be9ffda/d870637936c84c968adcb1bafd1c31c2/f53eadc4c2ef4da0b984de9ce2dbaf6b/preprocess/SubTool-0-10233600.OBJ"
    },
    {
      "mesh": 7,
      "name": "Object_17"
    }
  ],
  "scene": 0,
  "scenes": [
    {
      "name": "Sketchfab_Scene",
      "nodes": [
        0
      ]
    }
  ]
}
